<?xml version="1.0" encoding="UTF-8" standalone="no"?>
<!DOCTYPE svg PUBLIC "-//W3C//DTD SVG 1.1//EN"
 "http://www.w3.org/Graphics/SVG/1.1/DTD/svg11.dtd">
<!-- Generated by graphviz version 2.24.0 (20090616.2323)
 -->
<!-- Title: gressgraph Pages: 1 -->
<svg width="940pt" height="903pt"
 viewBox="0.00 0.00 940.00 902.71" xmlns="http://www.w3.org/2000/svg" xmlns:xlink="http://www.w3.org/1999/xlink">
<g id="graph1" class="graph" transform="scale(1 1) rotate(0) translate(4 898.706)">
<title>gressgraph</title>
<polygon fill="#808080" stroke="#808080" points="-4,5 -4,-898.706 937.001,-898.706 937.001,5 -4,5"/>
<!-- rootNode -->
<!-- any -->
<g id="node2" class="node"><title>any</title>
<ellipse fill="none" stroke="black" cx="678.75" cy="-506.957" rx="61" ry="61.5"/>
<text text-anchor="middle" x="678.75" y="-502.757" font-family="Times Roman,serif" font-size="14.00">any</text>
</g>
<!-- any&#45;&gt;rootNode -->
<!-- any&#45;&gt;any -->
<g id="edge34" class="edge"><title>any&#45;&gt;any</title>
<path fill="none" stroke="#fee08b" d="M740.029,-508.357C750.498,-508.166 757.75,-507.699 757.75,-506.957 757.75,-506.493 754.917,-506.137 750.237,-505.888"/>
<polygon fill="#fee08b" stroke="#fee08b" points="750.138,-502.383 740.029,-505.557 749.91,-509.38 750.138,-502.383"/>
</g>
<!-- any&#45;&gt;any -->
<g id="edge49" class="edge"><title>any&#45;&gt;any</title>
<path fill="none" stroke="#abdda4" d="M739.614,-513.591C784.572,-515.868 829.75,-513.656 829.75,-506.957 829.75,-500.755 791.029,-498.4 749.609,-499.891"/>
<polygon fill="#abdda4" stroke="#abdda4" points="749.453,-496.394 739.614,-500.323 749.756,-503.387 749.453,-496.394"/>
</g>
<!-- any&#45;&gt;any -->
<g id="edge14" class="edge"><title>any&#45;&gt;any</title>
<path fill="none" stroke="#9e0142" d="M739.625,-512.558C776.681,-513.855 811.75,-511.988 811.75,-506.957 811.75,-502.162 779.891,-500.241 744.819,-501.194"/>
<polygon fill="#9e0142" stroke="#9e0142" points="740.78,-506.322 740.469,-496.327 742.468,-496.265 742.779,-506.26 740.78,-506.322"/>
<polyline fill="none" stroke="#9e0142" points="739.625,-501.356 744.622,-501.2 "/>
</g>
<!-- any&#45;&gt;any -->
<g id="edge119" class="edge"><title>any&#45;&gt;any</title>
<path fill="none" stroke="#9e0142" d="M739.687,-511.358C768.471,-511.869 793.75,-510.402 793.75,-506.957 793.75,-503.929 774.223,-502.429 749.951,-502.457"/>
<polygon fill="#9e0142" stroke="#9e0142" points="749.653,-498.96 739.687,-502.556 749.72,-505.96 749.653,-498.96"/>
</g>
<!-- any&#45;&gt;any -->
<g id="edge149" class="edge"><title>any&#45;&gt;any</title>
<path fill="none" stroke="#9e0142" d="M739.848,-509.957C759.835,-509.941 775.75,-508.941 775.75,-506.957 775.75,-505.329 765.041,-504.364 750.16,-504.061"/>
<polygon fill="#9e0142" stroke="#9e0142" points="749.883,-500.558 739.848,-503.957 749.813,-507.558 749.883,-500.558"/>
</g>
<!-- lo -->
<g id="node6" class="node"><title>lo</title>
<ellipse fill="none" stroke="black" cx="678.75" cy="-385.249" rx="20" ry="20"/>
<text text-anchor="middle" x="678.75" y="-381.049" font-family="Times Roman,serif" font-size="14.00">lo</text>
</g>
<!-- any&#45;&gt;lo -->
<g id="edge154" class="edge"><title>any&#45;&gt;lo</title>
<path fill="none" stroke="#d53e4f" d="M685.5,-445.746C685.494,-434.908 685.202,-424.085 684.625,-414.652"/>
<polygon fill="#d53e4f" stroke="#d53e4f" points="688.114,-414.366 683.852,-404.666 681.134,-414.907 688.114,-414.366"/>
</g>
<!-- any_anywhere -->
<g id="node12" class="node"><title>any_anywhere</title>
<ellipse fill="none" stroke="black" cx="886.001" cy="-567.811" rx="35.9437" ry="61.5"/>
<text text-anchor="middle" x="886.001" y="-563.611" font-family="Times Roman,serif" font-size="14.00">anywhere</text>
</g>
<!-- any&#45;&gt;any_anywhere -->
<g id="edge20" class="edge"><title>any&#45;&gt;any_anywhere</title>
<path fill="none" stroke="#d53e4f" d="M666.088,-567.353C645.86,-738.922 788.984,-780.592 864.455,-624.53"/>
<polygon fill="#d53e4f" stroke="#d53e4f" points="861.721,-618.62 870.76,-622.899 869.904,-624.706 860.865,-620.428 861.721,-618.62"/>
<polyline fill="none" stroke="#d53e4f" points="866.668,-619.855 864.529,-624.375 "/>
</g>
<!-- any&#45;&gt;any_anywhere -->
<g id="edge25" class="edge"><title>any&#45;&gt;any_anywhere</title>
<path fill="none" stroke="#f46d43" d="M700.75,-449.303C775.964,-295.113 917.438,-335.779 898.952,-504.876"/>
<polygon fill="#f46d43" stroke="#f46d43" points="903.441,-509.508 893.51,-508.338 893.744,-506.351 903.675,-507.522 903.441,-509.508"/>
<polyline fill="none" stroke="#f46d43" points="898.358,-509.916 898.944,-504.95 "/>
</g>
<!-- any&#45;&gt;any_anywhere -->
<g id="edge30" class="edge"><title>any&#45;&gt;any_anywhere</title>
<path fill="none" stroke="#fdae61" d="M701.46,-449.729C773.1,-313.082 909.793,-352.223 898.078,-504.476"/>
<polygon fill="#fdae61" stroke="#fdae61" points="902.711,-508.912 892.749,-508.047 892.922,-506.054 902.884,-506.92 902.711,-508.912"/>
<polyline fill="none" stroke="#fdae61" points="897.643,-509.476 898.076,-504.495 "/>
</g>
<!-- any&#45;&gt;any_anywhere -->
<g id="edge35" class="edge"><title>any&#45;&gt;any_anywhere</title>
<path fill="none" stroke="#fee08b" d="M702.404,-450.186C769.749,-332.653 898.445,-367.643 897.053,-498.944"/>
<polygon fill="#fee08b" stroke="#fee08b" points="893.553,-498.865 896.701,-508.982 900.549,-499.111 893.553,-498.865"/>
</g>
<!-- any&#45;&gt;any_anywhere -->
<g id="edge40" class="edge"><title>any&#45;&gt;any_anywhere</title>
<path fill="none" stroke="#ffffbf" d="M703.684,-450.695C767.561,-350.961 889.242,-383.677 895.214,-497.895"/>
<polygon fill="#ffffbf" stroke="#ffffbf" points="891.719,-498.167 895.437,-508.088 898.718,-498.014 891.719,-498.167"/>
</g>
<!-- any&#45;&gt;any_anywhere -->
<g id="edge45" class="edge"><title>any&#45;&gt;any_anywhere</title>
<path fill="none" stroke="#e6f598" d="M705.277,-451.55C765.849,-369.152 879.801,-399.554 892.725,-497.415"/>
<polygon fill="#e6f598" stroke="#e6f598" points="889.245,-497.79 893.674,-507.414 896.213,-497.128 889.245,-497.79"/>
</g>
<!-- any&#45;&gt;any_anywhere -->
<g id="edge50" class="edge"><title>any&#45;&gt;any_anywhere</title>
<path fill="none" stroke="#abdda4" d="M707.662,-452.468C764.911,-387.593 869.33,-415.189 889.207,-496.583"/>
<polygon fill="#abdda4" stroke="#abdda4" points="885.846,-497.632 891.203,-506.773 892.716,-496.287 885.846,-497.632"/>
</g>
<!-- any&#45;&gt;any_anywhere -->
<g id="edge55" class="edge"><title>any&#45;&gt;any_anywhere</title>
<path fill="none" stroke="#66c2a5" d="M710.841,-454.042C764.797,-405.865 858.666,-430.614 884.493,-496.591"/>
<polygon fill="#66c2a5" stroke="#66c2a5" points="881.201,-497.784 887.674,-506.171 887.844,-495.578 881.201,-497.784"/>
</g>
<!-- any&#45;&gt;any_anywhere -->
<g id="edge60" class="edge"><title>any&#45;&gt;any_anywhere</title>
<path fill="none" stroke="#3288bd" d="M714.602,-456.987C764.98,-423.834 847.573,-445.519 878.178,-497.319"/>
<polygon fill="#3288bd" stroke="#3288bd" points="875.091,-498.969 882.792,-506.246 881.31,-495.755 875.091,-498.969"/>
</g>
<!-- any&#45;&gt;any_anywhere -->
<g id="edge65" class="edge"><title>any&#45;&gt;any_anywhere</title>
<path fill="none" stroke="#5e4fa2" d="M719.763,-461.291C766.442,-441.394 837.386,-460.327 870.634,-499.895"/>
<polygon fill="#5e4fa2" stroke="#5e4fa2" points="867.966,-502.172 876.762,-508.078 873.569,-497.976 867.966,-502.172"/>
</g>
<!-- any&#45;&gt;any_anywhere -->
<g id="edge70" class="edge"><title>any&#45;&gt;any_anywhere</title>
<path fill="none" stroke="#9e0142" d="M725.927,-467.773C768.923,-458.339 829.327,-475.095 862.981,-505.075"/>
<polygon fill="#9e0142" stroke="#9e0142" points="860.549,-507.593 870.138,-512.099 865.452,-502.596 860.549,-507.593"/>
</g>
<!-- any&#45;&gt;any_anywhere -->
<g id="edge75" class="edge"><title>any&#45;&gt;any_anywhere</title>
<path fill="none" stroke="#d53e4f" d="M732.101,-476.734C771.523,-474.672 823.247,-489.645 855.912,-512.446"/>
<polygon fill="#d53e4f" stroke="#d53e4f" points="854.111,-515.473 864.19,-518.739 858.347,-509.901 854.111,-515.473"/>
</g>
<!-- any&#45;&gt;any_anywhere -->
<g id="edge80" class="edge"><title>any&#45;&gt;any_anywhere</title>
<path fill="none" stroke="#f46d43" d="M736.902,-487.696C773.261,-490.327 818.738,-503.899 850.01,-521.565"/>
<polygon fill="#f46d43" stroke="#f46d43" points="848.467,-524.722 858.833,-526.91 852.093,-518.735 848.467,-524.722"/>
</g>
<!-- any&#45;&gt;any_anywhere -->
<g id="edge85" class="edge"><title>any&#45;&gt;any_anywhere</title>
<path fill="none" stroke="#fdae61" d="M739.43,-499.737C773.68,-505.329 815.464,-517.952 845.706,-532.005"/>
<polygon fill="#fdae61" stroke="#fdae61" points="844.179,-535.154 854.7,-536.406 847.256,-528.866 844.179,-535.154"/>
</g>
<!-- any&#45;&gt;any_anywhere -->
<g id="edge90" class="edge"><title>any&#45;&gt;any_anywhere</title>
<path fill="none" stroke="#fee08b" d="M739.652,-512.092C772.584,-519.777 812.48,-531.741 842.308,-542.981"/>
<polygon fill="#fee08b" stroke="#fee08b" points="841.425,-546.393 852.013,-546.759 843.964,-539.87 841.425,-546.393"/>
</g>
<!-- any&#45;&gt;any_anywhere -->
<g id="edge95" class="edge"><title>any&#45;&gt;any_anywhere</title>
<path fill="none" stroke="#ffffbf" d="M737.586,-524.233C770.271,-533.83 810.319,-545.589 840.573,-554.472"/>
<polygon fill="#ffffbf" stroke="#ffffbf" points="839.851,-557.908 850.432,-557.367 841.823,-551.192 839.851,-557.908"/>
</g>
<!-- any&#45;&gt;any_anywhere -->
<g id="edge100" class="edge"><title>any&#45;&gt;any_anywhere</title>
<path fill="none" stroke="#e6f598" d="M732.76,-535.563C766.034,-547.406 808.22,-559.43 839.917,-565.937"/>
<polygon fill="#e6f598" stroke="#e6f598" points="839.333,-569.389 849.815,-567.848 840.661,-562.516 839.333,-569.389"/>
</g>
<!-- any&#45;&gt;any_anywhere -->
<g id="edge105" class="edge"><title>any&#45;&gt;any_anywhere</title>
<path fill="none" stroke="#abdda4" d="M726.154,-545.95C760.408,-560.775 806.299,-573.458 840.19,-577.058"/>
<polygon fill="#abdda4" stroke="#abdda4" points="840.046,-580.557 850.296,-577.876 840.611,-573.58 840.046,-580.557"/>
</g>
<!-- any&#45;&gt;any_anywhere -->
<g id="edge110" class="edge"><title>any&#45;&gt;any_anywhere</title>
<path fill="none" stroke="#66c2a5" d="M717.503,-554.733C752.848,-573.93 804.618,-587.915 841.609,-587.527"/>
<polygon fill="#66c2a5" stroke="#66c2a5" points="841.811,-591.022 851.624,-587.029 841.463,-584.03 841.811,-591.022"/>
</g>
<!-- any&#45;&gt;any_anywhere -->
<g id="edge115" class="edge"><title>any&#45;&gt;any_anywhere</title>
<path fill="none" stroke="#3288bd" d="M707.737,-561.545C743.439,-586.997 802.962,-602.973 843.681,-596.955"/>
<polygon fill="#3288bd" stroke="#3288bd" points="844.497,-600.361 853.602,-594.944 843.106,-593.501 844.497,-600.361"/>
</g>
<!-- any&#45;&gt;any_anywhere -->
<g id="edge15" class="edge"><title>any&#45;&gt;any_anywhere</title>
<path fill="none" stroke="#9e0142" d="M697.639,-565.811C733.295,-601.206 806.076,-620.16 850.749,-603.52"/>
<polygon fill="#9e0142" stroke="#9e0142" points="852.69,-597.314 856.495,-606.562 854.646,-607.323 850.841,-598.075 852.69,-597.314"/>
<polyline fill="none" stroke="#9e0142" points="855.517,-601.558 850.894,-603.46 "/>
</g>
<!-- any&#45;&gt;any_anywhere -->
<g id="edge120" class="edge"><title>any&#45;&gt;any_anywhere</title>
<path fill="none" stroke="#9e0142" d="M688.88,-568.01C720.155,-613.41 799.937,-635.707 849.007,-611.638"/>
<polygon fill="#9e0142" stroke="#9e0142" points="850.86,-614.61 857.793,-606.6 847.377,-608.538 850.86,-614.61"/>
</g>
<!-- any&#45;&gt;any_anywhere -->
<g id="edge150" class="edge"><title>any&#45;&gt;any_anywhere</title>
<path fill="none" stroke="#9e0142" d="M681.895,-568.377C707.964,-627.14 798.518,-653.274 851.564,-616.83"/>
<polygon fill="#9e0142" stroke="#9e0142" points="854.017,-619.355 859.74,-610.439 849.706,-613.84 854.017,-619.355"/>
</g>
<!-- ath0 -->
<g id="node3" class="node"><title>ath0</title>
<ellipse fill="none" stroke="black" cx="440.76" cy="-659.904" rx="51" ry="51.5"/>
<text text-anchor="middle" x="440.76" y="-655.704" font-family="Times Roman,serif" font-size="14.00">ath0</text>
</g>
<!-- ath0&#45;&gt;rootNode -->
<!-- ath0&#45;&gt;any -->
<g id="edge39" class="edge"><title>ath0&#45;&gt;any</title>
<path fill="none" stroke="#ffffbf" d="M491.28,-667.4C540.123,-655.092 610.066,-612.37 650.298,-571.891"/>
<polygon fill="#ffffbf" stroke="#ffffbf" points="652.85,-574.286 657.213,-564.631 647.781,-569.458 652.85,-574.286"/>
</g>
<!-- ath0&#45;&gt;any -->
<g id="edge54" class="edge"><title>ath0&#45;&gt;any</title>
<path fill="none" stroke="#66c2a5" d="M455.516,-610.107C487.262,-570.943 554.702,-525.495 607.914,-505.846"/>
<polygon fill="#66c2a5" stroke="#66c2a5" points="609.357,-509.051 617.672,-502.485 607.077,-502.432 609.357,-509.051"/>
</g>
<!-- ath0&#45;&gt;any -->
<g id="edge59" class="edge"><title>ath0&#45;&gt;any</title>
<path fill="none" stroke="#3288bd" d="M464.714,-614.265C498.709,-580.798 560.002,-540.043 608.64,-517.677"/>
<polygon fill="#3288bd" stroke="#3288bd" points="610.148,-520.837 617.876,-513.588 607.315,-514.436 610.148,-520.837"/>
</g>
<!-- ath0&#45;&gt;any -->
<g id="edge64" class="edge"><title>ath0&#45;&gt;any</title>
<path fill="none" stroke="#5e4fa2" d="M473.672,-619.971C509.103,-591.003 565.944,-553.723 610.917,-529.516"/>
<polygon fill="#5e4fa2" stroke="#5e4fa2" points="612.821,-532.469 620.032,-524.706 609.554,-526.278 612.821,-532.469"/>
</g>
<!-- ath0&#45;&gt;any -->
<g id="edge69" class="edge"><title>ath0&#45;&gt;any</title>
<path fill="none" stroke="#9e0142" d="M480.971,-627.714C517.8,-602.087 572.873,-566.452 615.571,-540.488"/>
<polygon fill="#9e0142" stroke="#9e0142" points="617.462,-543.434 624.209,-535.266 613.841,-537.444 617.462,-543.434"/>
</g>
<!-- ath0&#45;&gt;any -->
<g id="edge74" class="edge"><title>ath0&#45;&gt;any</title>
<path fill="none" stroke="#d53e4f" d="M486.463,-636.866C525.045,-614.041 580.427,-578.697 621.868,-550.591"/>
<polygon fill="#d53e4f" stroke="#d53e4f" points="623.935,-553.417 630.224,-544.891 619.991,-547.634 623.935,-553.417"/>
</g>
<!-- ath0&#45;&gt;any -->
<g id="edge84" class="edge"><title>ath0&#45;&gt;any</title>
<path fill="none" stroke="#fdae61" d="M490.174,-646.841C531.28,-626.703 589.158,-590.288 630.052,-559.288"/>
<polygon fill="#fdae61" stroke="#fdae61" points="632.211,-562.044 637.995,-553.167 627.938,-556.499 632.211,-562.044"/>
</g>
<!-- ath0&#45;&gt;any -->
<g id="edge114" class="edge"><title>ath0&#45;&gt;any</title>
<path fill="none" stroke="#3288bd" d="M491.928,-657.188C536.33,-640.296 598.726,-601.623 639.379,-566.705"/>
<polygon fill="#3288bd" stroke="#3288bd" points="641.782,-569.252 646.958,-560.007 637.147,-564.007 641.782,-569.252"/>
</g>
<!-- ath0&#45;&gt;ath0 -->
<g id="edge129" class="edge"><title>ath0&#45;&gt;ath0</title>
<path fill="none" stroke="#f46d43" d="M491.915,-662.068C502.313,-661.833 509.76,-661.111 509.76,-659.904 509.76,-659.15 506.851,-658.585 502.131,-658.21"/>
<polygon fill="#f46d43" stroke="#f46d43" points="502.065,-654.704 491.915,-657.74 501.743,-661.696 502.065,-654.704"/>
</g>
<!-- ath0&#45;&gt;ath0 -->
<g id="edge134" class="edge"><title>ath0&#45;&gt;ath0</title>
<path fill="none" stroke="#fdae61" d="M491.539,-666.331C519.766,-667.531 545.76,-665.389 545.76,-659.904 545.76,-655.084 525.681,-652.845 501.653,-653.188"/>
<polygon fill="#fdae61" stroke="#fdae61" points="501.435,-649.693 491.539,-653.477 501.635,-656.69 501.435,-649.693"/>
</g>
<!-- ath0&#45;&gt;ath0 -->
<g id="edge139" class="edge"><title>ath0&#45;&gt;ath0</title>
<path fill="none" stroke="#fee08b" d="M491.697,-664.387C511.391,-664.586 527.76,-663.092 527.76,-659.904 527.76,-657.29 516.745,-655.814 501.915,-655.479"/>
<polygon fill="#fee08b" stroke="#fee08b" points="501.716,-651.977 491.697,-655.422 501.677,-658.977 501.716,-651.977"/>
</g>
<!-- eth0 -->
<g id="node4" class="node"><title>eth0</title>
<ellipse fill="none" stroke="black" cx="330.05" cy="-282.861" rx="39" ry="39.5"/>
<text text-anchor="middle" x="330.05" y="-278.661" font-family="Times Roman,serif" font-size="14.00">eth0</text>
</g>
<!-- ath0&#45;&gt;eth0 -->
<g id="edge124" class="edge"><title>ath0&#45;&gt;eth0</title>
<path fill="none" stroke="#d53e4f" d="M426.173,-610.225C404.779,-537.364 365.154,-402.416 344.082,-330.648"/>
<polygon fill="#d53e4f" stroke="#d53e4f" points="347.411,-329.562 341.235,-320.953 340.694,-331.534 347.411,-329.562"/>
</g>
<!-- ath0_anywhere -->
<g id="node13" class="node"><title>ath0_anywhere</title>
<ellipse fill="none" stroke="black" cx="754.4" cy="-772.587" rx="36.1217" ry="45"/>
<text text-anchor="middle" x="754.4" y="-768.387" font-family="Times Roman,serif" font-size="14.00">anywhere</text>
</g>
<!-- ath0&#45;&gt;ath0_anywhere -->
<g id="edge130" class="edge"><title>ath0&#45;&gt;ath0_anywhere</title>
<path fill="none" stroke="#f46d43" d="M460.036,-708.022C511.273,-758.164 643.676,-805.134 712.815,-797.042"/>
<polygon fill="#f46d43" stroke="#f46d43" points="713.654,-800.45 722.943,-795.353 712.503,-793.545 713.654,-800.45"/>
</g>
<!-- ath0&#45;&gt;ath0_anywhere -->
<g id="edge135" class="edge"><title>ath0&#45;&gt;ath0_anywhere</title>
<path fill="none" stroke="#fdae61" d="M485.57,-635.116C555.029,-628.843 682.843,-674.442 734.038,-723.419"/>
<polygon fill="#fdae61" stroke="#fdae61" points="731.56,-725.891 741.019,-730.664 736.6,-721.034 731.56,-725.891"/>
</g>
<!-- ath0&#45;&gt;ath0_anywhere -->
<g id="edge140" class="edge"><title>ath0&#45;&gt;ath0_anywhere</title>
<path fill="none" stroke="#fee08b" d="M489.096,-643.282C555.809,-645.788 672.466,-687.538 726.477,-728.082"/>
<polygon fill="#fee08b" stroke="#fee08b" points="724.595,-731.059 734.59,-734.572 728.968,-725.592 724.595,-731.059"/>
</g>
<!-- eth0&#45;&gt;rootNode -->
<!-- eth0&#45;&gt;any -->
<g id="edge24" class="edge"><title>eth0&#45;&gt;any</title>
<path fill="none" stroke="#f46d43" d="M351.706,-315.861C403.915,-365 535.137,-450.915 614.849,-489.725"/>
<polygon fill="#f46d43" stroke="#f46d43" points="620.818,-487.049 616.481,-496.06 614.679,-495.192 619.015,-486.182 620.818,-487.049"/>
<polyline fill="none" stroke="#f46d43" points="619.55,-491.988 615.045,-489.82 "/>
</g>
<!-- eth0&#45;&gt;any -->
<g id="edge29" class="edge"><title>eth0&#45;&gt;any</title>
<path fill="none" stroke="#fdae61" d="M368.725,-288.712C434.873,-315.593 567.496,-399.19 636.143,-455.669"/>
<polygon fill="#fdae61" stroke="#fdae61" points="642.593,-454.526 636.204,-462.219 634.666,-460.942 641.054,-453.248 642.593,-454.526"/>
<polyline fill="none" stroke="#fdae61" points="640.168,-459.012 636.321,-455.817 "/>
</g>
<!-- eth0&#45;&gt;any -->
<g id="edge79" class="edge"><title>eth0&#45;&gt;any</title>
<path fill="none" stroke="#f46d43" d="M366.678,-296.621C428.342,-328.909 552.754,-407.971 624.532,-459.655"/>
<polygon fill="#f46d43" stroke="#f46d43" points="622.868,-462.772 633.016,-465.817 626.982,-457.109 622.868,-462.772"/>
</g>
<!-- eth0&#45;&gt;any -->
<g id="edge89" class="edge"><title>eth0&#45;&gt;any</title>
<path fill="none" stroke="#fee08b" d="M363.169,-304.145C421.735,-341.783 544.359,-420.589 618.325,-468.124"/>
<polygon fill="#fee08b" stroke="#fee08b" points="616.792,-471.299 627.097,-473.761 620.576,-465.41 616.792,-471.299"/>
</g>
<!-- eth0&#45;&gt;any -->
<g id="edge19" class="edge"><title>eth0&#45;&gt;any</title>
<path fill="none" stroke="#d53e4f" d="M358.076,-310.69C414.361,-354.321 541.692,-436.913 617.949,-479.984"/>
<polygon fill="#d53e4f" stroke="#d53e4f" points="624.023,-477.662 619.124,-486.38 617.38,-485.4 622.279,-476.682 624.023,-477.662"/>
<polyline fill="none" stroke="#d53e4f" points="622.445,-482.511 618.086,-480.061 "/>
</g>
<!-- eth0_anywhere -->
<g id="node20" class="node"><title>eth0_anywhere</title>
<ellipse fill="none" stroke="black" cx="39.5" cy="-446.103" rx="38.0334" ry="30.5"/>
<text text-anchor="middle" x="39.5" y="-441.903" font-family="Times Roman,serif" font-size="14.00">anywhere</text>
</g>
<!-- eth0&#45;&gt;eth0_anywhere -->
<g id="edge125" class="edge"><title>eth0&#45;&gt;eth0_anywhere</title>
<path fill="none" stroke="#d53e4f" d="M291.332,-289.361C232.041,-312.242 120.869,-374.505 68.1821,-414.141"/>
<polygon fill="#d53e4f" stroke="#d53e4f" points="66.0008,-411.404 60.2453,-420.299 70.2917,-416.935 66.0008,-411.404"/>
</g>
<!-- eth0&#45;&gt;eth0_anywhere -->
<g id="edge145" class="edge"><title>eth0&#45;&gt;eth0_anywhere</title>
<path fill="none" stroke="#ffffbf" d="M304.102,-312.745C254.869,-350.524 148.395,-410.771 86.4169,-436.326"/>
<polygon fill="#ffffbf" stroke="#ffffbf" points="84.8681,-433.175 76.8675,-440.12 87.4531,-439.68 84.8681,-433.175"/>
</g>
<!-- eth1 -->
<g id="node5" class="node"><title>eth1</title>
<ellipse fill="none" stroke="black" cx="612.95" cy="-282.861" rx="34" ry="34"/>
<text text-anchor="middle" x="612.95" y="-278.661" font-family="Times Roman,serif" font-size="14.00">eth1</text>
</g>
<!-- eth1&#45;&gt;rootNode -->
<!-- eth1&#45;&gt;any -->
<g id="edge94" class="edge"><title>eth1&#45;&gt;any</title>
<path fill="none" stroke="#ffffbf" d="M607.986,-316.642C611.74,-350.814 625.905,-404.253 641.345,-445.846"/>
<polygon fill="#ffffbf" stroke="#ffffbf" points="638.132,-447.244 644.972,-455.336 644.671,-444.745 638.132,-447.244"/>
</g>
<!-- eth1&#45;&gt;any -->
<g id="edge99" class="edge"><title>eth1&#45;&gt;any</title>
<path fill="none" stroke="#e6f598" d="M635.389,-308.596C650.706,-339.373 667.681,-391.986 677.179,-435.324"/>
<polygon fill="#e6f598" stroke="#e6f598" points="673.786,-436.196 679.258,-445.268 680.638,-434.763 673.786,-436.196"/>
</g>
<!-- eth1&#45;&gt;any -->
<g id="edge104" class="edge"><title>eth1&#45;&gt;any</title>
<path fill="none" stroke="#abdda4" d="M627.246,-314.058C638.407,-345.571 653.485,-395.32 664.581,-436.405"/>
<polygon fill="#abdda4" stroke="#abdda4" points="661.209,-437.346 667.169,-446.106 667.973,-435.541 661.209,-437.346"/>
</g>
<!-- eth1&#45;&gt;any -->
<g id="edge109" class="edge"><title>eth1&#45;&gt;any</title>
<path fill="none" stroke="#66c2a5" d="M617.789,-316.835C625.464,-349.494 639.749,-399.734 652.663,-440.371"/>
<polygon fill="#66c2a5" stroke="#66c2a5" points="649.348,-441.495 655.738,-449.946 656.012,-439.354 649.348,-441.495"/>
</g>
<!-- eth1&#45;&gt;eth0 -->
<g id="edge144" class="edge"><title>eth1&#45;&gt;eth0</title>
<path fill="none" stroke="#ffffbf" d="M578.826,-282.861C529.159,-282.861 436.665,-282.861 379.525,-282.861"/>
<polygon fill="#ffffbf" stroke="#ffffbf" points="379.285,-279.361 369.285,-282.861 379.285,-286.361 379.285,-279.361"/>
</g>
<!-- lo&#45;&gt;rootNode -->
<!-- lo&#45;&gt;any -->
<g id="edge44" class="edge"><title>lo&#45;&gt;any</title>
<path fill="none" stroke="#e6f598" d="M673.636,-404.803C672.802,-413.482 672.287,-424.284 672.091,-435.584"/>
<polygon fill="#e6f598" stroke="#e6f598" points="668.591,-435.572 672.001,-445.603 675.591,-435.635 668.591,-435.572"/>
</g>
<!-- lo_anywhere -->
<g id="node22" class="node"><title>lo_anywhere</title>
<ellipse fill="none" stroke="black" cx="886.001" cy="-324.394" rx="44.8705" ry="20"/>
<text text-anchor="middle" x="886.001" y="-320.194" font-family="Times Roman,serif" font-size="14.00">anywhere</text>
</g>
<!-- lo&#45;&gt;lo_anywhere -->
<g id="edge155" class="edge"><title>lo&#45;&gt;lo_anywhere</title>
<path fill="none" stroke="#d53e4f" d="M699.035,-383.579C732.747,-376.734 800.903,-357.23 844.955,-342.261"/>
<polygon fill="#d53e4f" stroke="#d53e4f" points="846.208,-345.531 854.511,-338.949 843.916,-338.917 846.208,-345.531"/>
</g>
<!-- any_anywhere&#45;&gt;any -->
<g id="edge32" class="edge"><title>any_anywhere&#45;&gt;any</title>
<path fill="none" stroke="#fee08b" d="M861.532,-613.126C809.328,-671.2 707.442,-647.404 680.296,-578.272"/>
<polygon fill="#fee08b" stroke="#fee08b" points="683.584,-577.07 677.102,-568.689 676.943,-579.283 683.584,-577.07"/>
<text text-anchor="middle" x="768.914" y="-603.499" font-family="Times Roman,serif" font-size="14.00" fill="#fee08b">Rel,Est</text>
</g>
<!-- any_anywhere&#45;&gt;any -->
<g id="edge47" class="edge"><title>any_anywhere&#45;&gt;any</title>
<path fill="none" stroke="#abdda4" d="M862.816,-615.287C807.177,-688.922 696.361,-662.436 675.616,-578.478"/>
<polygon fill="#abdda4" stroke="#abdda4" points="679.018,-577.639 673.627,-568.518 672.153,-579.01 679.018,-577.639"/>
<text text-anchor="middle" x="767.216" y="-604.683" font-family="Times Roman,serif" font-size="14.00" fill="#abdda4">TCP:ssh New</text>
</g>
<!-- any_anywhere&#45;&gt;any -->
<g id="edge12" class="edge"><title>any_anywhere&#45;&gt;any</title>
<path fill="none" stroke="#9e0142" d="M864.051,-616.618C804.026,-708.394 681.956,-676.9 671.537,-573.137"/>
<polygon fill="#9e0142" stroke="#9e0142" points="666.225,-569.549 676.191,-568.728 676.355,-570.721 666.389,-571.542 666.225,-569.549"/>
<polyline fill="none" stroke="#9e0142" points="671.126,-568.142 671.536,-573.125 "/>
<text text-anchor="middle" x="765.794" y="-601.678" font-family="Times Roman,serif" font-size="14.00" fill="#9e0142">Inv</text>
</g>
<!-- any_anywhere&#45;&gt;any -->
<g id="edge117" class="edge"><title>any_anywhere&#45;&gt;any</title>
<path fill="none" stroke="#9e0142" d="M864.752,-618.061C802.256,-724.622 676.653,-693.584 669.617,-578.29"/>
<polygon fill="#9e0142" stroke="#9e0142" points="673.107,-577.887 669.309,-567.996 666.11,-578.096 673.107,-577.887"/>
<text text-anchor="middle" x="765.184" y="-605.976" font-family="Times Roman,serif" font-size="14.00" fill="#9e0142">Rel,Est</text>
</g>
<!-- any_anywhere&#45;&gt;any -->
<g id="edge147" class="edge"><title>any_anywhere&#45;&gt;any</title>
<path fill="none" stroke="#9e0142" d="M865.615,-618.668C799.629,-742.554 667.743,-709.65 667.688,-578.016"/>
<polygon fill="#9e0142" stroke="#9e0142" points="671.188,-578.031 667.934,-567.949 664.19,-577.86 671.188,-578.031"/>
<text text-anchor="middle" x="768.651" y="-582.142" font-family="Times Roman,serif" font-size="14.00" fill="#9e0142">New,Rel,Est</text>
</g>
<!-- any_anywhere&#45;&gt;any -->
<g id="edge152" class="edge"><title>any_anywhere&#45;&gt;any</title>
<path fill="none" stroke="#d53e4f" d="M866.136,-619.45C796.513,-760.345 659.432,-725.797 666.209,-577.853"/>
<polygon fill="#d53e4f" stroke="#d53e4f" points="669.728,-577.689 666.906,-567.476 662.743,-577.219 669.728,-577.689"/>
</g>
<!-- ath0_anywhere&#45;&gt;ath0 -->
<g id="edge37" class="edge"><title>ath0_anywhere&#45;&gt;ath0</title>
<path fill="none" stroke="#ffffbf" d="M729.031,-740.504C679.542,-707.185 570.347,-666.461 501.299,-654.204"/>
<polygon fill="#ffffbf" stroke="#ffffbf" points="501.845,-650.747 491.414,-652.606 500.728,-657.657 501.845,-650.747"/>
<text text-anchor="middle" x="610.165" y="-707.154" font-family="Times Roman,serif" font-size="14.00" fill="#ffffbf">UDP:bootps</text>
</g>
<!-- ath0_anywhere&#45;&gt;ath0 -->
<g id="edge52" class="edge"><title>ath0_anywhere&#45;&gt;ath0</title>
<path fill="none" stroke="#66c2a5" d="M724.133,-747.583C672.931,-720.371 568.674,-681.989 501.841,-664.943"/>
<polygon fill="#66c2a5" stroke="#66c2a5" points="502.403,-661.477 491.857,-662.491 500.733,-668.275 502.403,-661.477"/>
<text text-anchor="middle" x="617.987" y="-688.063" font-family="Times Roman,serif" font-size="14.00" fill="#66c2a5">New TCP:microsoft&#45;ds</text>
</g>
<!-- ath0_anywhere&#45;&gt;ath0 -->
<g id="edge57" class="edge"><title>ath0_anywhere&#45;&gt;ath0</title>
<path fill="none" stroke="#3288bd" d="M720.838,-755.803C668.164,-733.982 565.403,-696.738 500.066,-675.513"/>
<polygon fill="#3288bd" stroke="#3288bd" points="500.903,-672.106 490.312,-672.375 498.76,-678.769 500.903,-672.106"/>
<text text-anchor="middle" x="605.452" y="-725.458" font-family="Times Roman,serif" font-size="14.00" fill="#3288bd">New TCP:netbios&#45;ssn</text>
</g>
<!-- ath0_anywhere&#45;&gt;ath0 -->
<g id="edge62" class="edge"><title>ath0_anywhere&#45;&gt;ath0</title>
<path fill="none" stroke="#5e4fa2" d="M718.75,-764.456C664.506,-747.908 560.815,-710.996 496.541,-685.647"/>
<polygon fill="#5e4fa2" stroke="#5e4fa2" points="497.551,-682.282 486.966,-681.839 494.964,-688.787 497.551,-682.282"/>
<text text-anchor="middle" x="611.645" y="-707.851" font-family="Times Roman,serif" font-size="14.00" fill="#5e4fa2">New TCP:domain</text>
</g>
<!-- ath0_anywhere&#45;&gt;ath0 -->
<g id="edge67" class="edge"><title>ath0_anywhere&#45;&gt;ath0</title>
<path fill="none" stroke="#9e0142" d="M718.264,-773.233C662.245,-762.387 554.635,-724.817 491.074,-694.885"/>
<polygon fill="#9e0142" stroke="#9e0142" points="492.555,-691.714 482.027,-690.529 489.518,-698.021 492.555,-691.714"/>
<text text-anchor="middle" x="600.669" y="-742.859" font-family="Times Roman,serif" font-size="14.00" fill="#9e0142">New UDP:domain</text>
</g>
<!-- ath0_anywhere&#45;&gt;ath0 -->
<g id="edge72" class="edge"><title>ath0_anywhere&#45;&gt;ath0</title>
<path fill="none" stroke="#d53e4f" d="M719.115,-781.588C661.203,-777.469 547.236,-738.487 484.402,-703.151"/>
<polygon fill="#d53e4f" stroke="#d53e4f" points="485.916,-699.983 475.515,-697.969 482.39,-706.03 485.916,-699.983"/>
<text text-anchor="middle" x="597.758" y="-751.169" font-family="Times Roman,serif" font-size="14.00" fill="#d53e4f">UDP:ntp</text>
</g>
<!-- ath0_anywhere&#45;&gt;ath0 -->
<g id="edge122" class="edge"><title>ath0_anywhere&#45;&gt;ath0</title>
<path fill="none" stroke="#d53e4f" d="M720.693,-789.061C660.396,-793.051 537.182,-751.61 475.941,-709.61"/>
<polygon fill="#d53e4f" stroke="#d53e4f" points="477.883,-706.695 467.724,-703.685 473.788,-712.373 477.883,-706.695"/>
</g>
<!-- ath0_malglata -->
<g id="node14" class="node"><title>ath0_malglata</title>
<ellipse fill="none" stroke="black" cx="532.98" cy="-873.706" rx="40.9164" ry="20"/>
<text text-anchor="middle" x="532.98" y="-869.506" font-family="Times Roman,serif" font-size="14.00">malglata</text>
</g>
<!-- ath0_malglata&#45;&gt;ath0 -->
<g id="edge112" class="edge"><title>ath0_malglata&#45;&gt;ath0</title>
<path fill="none" stroke="#3288bd" d="M528.643,-853.517C517.975,-821.819 491.779,-759.386 470.642,-713.954"/>
<polygon fill="#3288bd" stroke="#3288bd" points="473.772,-712.384 466.352,-704.821 467.436,-715.36 473.772,-712.384"/>
<text text-anchor="middle" x="484.642" y="-785.535" font-family="Times Roman,serif" font-size="14.00" fill="#3288bd">New</text>
</g>
<!-- ath0_malglata&#45;&gt;ath0 -->
<g id="edge137" class="edge"><title>ath0_malglata&#45;&gt;ath0</title>
<path fill="none" stroke="#fee08b" d="M520.103,-854.484C504.227,-824.217 477.72,-764.299 459.633,-718.899"/>
<polygon fill="#fee08b" stroke="#fee08b" points="462.83,-717.468 455.908,-709.448 456.318,-720.035 462.83,-717.468"/>
</g>
<!-- ath0_necesiga -->
<g id="node15" class="node"><title>ath0_necesiga</title>
<ellipse fill="none" stroke="black" cx="292.041" cy="-839.064" rx="44.8929" ry="17.5362"/>
<text text-anchor="middle" x="292.041" y="-834.864" font-family="Times Roman,serif" font-size="14.00">necesiga</text>
</g>
<!-- ath0_necesiga&#45;&gt;ath0 -->
<g id="edge127" class="edge"><title>ath0_necesiga&#45;&gt;ath0</title>
<path fill="none" stroke="#f46d43" d="M306.032,-822.209C327.634,-796.185 369.897,-745.272 401.355,-707.375"/>
<polygon fill="#f46d43" stroke="#f46d43" points="404.199,-709.429 407.893,-699.499 398.813,-704.958 404.199,-709.429"/>
</g>
<!-- ath0_neo -->
<g id="node16" class="node"><title>ath0_neo</title>
<ellipse fill="none" stroke="black" cx="108.078" cy="-679.66" rx="27" ry="20"/>
<text text-anchor="middle" x="108.078" y="-675.46" font-family="Times Roman,serif" font-size="14.00">neo</text>
</g>
<!-- ath0_neo&#45;&gt;ath0 -->
<g id="edge82" class="edge"><title>ath0_neo&#45;&gt;ath0</title>
<path fill="none" stroke="#fdae61" d="M134.971,-681.947C188.03,-682.05 307.357,-675.459 380.269,-668.863"/>
<polygon fill="#fdae61" stroke="#fdae61" points="380.606,-672.347 390.238,-667.933 379.956,-665.378 380.606,-672.347"/>
<text text-anchor="middle" x="257.62" y="-661.205" font-family="Times Roman,serif" font-size="14.00" fill="#fdae61">TCP:ipp New</text>
</g>
<!-- ath0_neo&#45;&gt;ath0 -->
<g id="edge132" class="edge"><title>ath0_neo&#45;&gt;ath0</title>
<path fill="none" stroke="#fdae61" d="M134.233,-674.24C186.733,-667.854 306.186,-660.26 379.506,-658.171"/>
<polygon fill="#fdae61" stroke="#fdae61" points="379.627,-661.669 389.534,-657.913 379.447,-654.671 379.627,-661.669"/>
</g>
<!-- eth0_10.0.0.0/8 -->
<g id="node17" class="node"><title>eth0_10.0.0.0/8</title>
<ellipse fill="none" stroke="black" cx="108.078" cy="-212.546" rx="51.1879" ry="17.5362"/>
<text text-anchor="middle" x="108.078" y="-208.346" font-family="Times Roman,serif" font-size="14.00">10.0.0.0/8</text>
</g>
<!-- eth0_10.0.0.0/8&#45;&gt;eth0 -->
<g id="edge17" class="edge"><title>eth0_10.0.0.0/8&#45;&gt;eth0</title>
<path fill="none" stroke="#d53e4f" d="M145.733,-224.474C185.075,-236.937 246.669,-256.448 287.685,-269.441"/>
<polygon fill="#d53e4f" stroke="#d53e4f" points="293.139,-265.923 290.119,-275.457 288.212,-274.853 291.232,-265.319 293.139,-265.923"/>
<polyline fill="none" stroke="#d53e4f" points="292.582,-270.992 287.815,-269.482 "/>
</g>
<!-- eth0_172.16.0.0/255.250.0.0 -->
<g id="node18" class="node"><title>eth0_172.16.0.0/255.250.0.0</title>
<ellipse fill="none" stroke="black" cx="292.041" cy="-53.1418" rx="103.16" ry="17.5362"/>
<text text-anchor="middle" x="292.041" y="-48.9418" font-family="Times Roman,serif" font-size="14.00">172.16.0.0/255.250.0.0</text>
</g>
<!-- eth0_172.16.0.0/255.250.0.0&#45;&gt;eth0 -->
<g id="edge22" class="edge"><title>eth0_172.16.0.0/255.250.0.0&#45;&gt;eth0</title>
<path fill="none" stroke="#f46d43" d="M294.96,-70.7861C300.842,-106.337 314.276,-187.528 322.711,-238.504"/>
<polygon fill="#f46d43" stroke="#f46d43" points="328.331,-241.843 318.465,-243.476 318.139,-241.503 328.005,-239.87 328.331,-241.843"/>
<polyline fill="none" stroke="#f46d43" points="323.562,-243.646 322.745,-238.713 "/>
</g>
<!-- eth0_192.168.0.0/16 -->
<g id="node19" class="node"><title>eth0_192.168.0.0/16</title>
<ellipse fill="none" stroke="black" cx="532.98" cy="-18.5" rx="70.9869" ry="17.5362"/>
<text text-anchor="middle" x="532.98" y="-14.3" font-family="Times Roman,serif" font-size="14.00">192.168.0.0/16</text>
</g>
<!-- eth0_192.168.0.0/16&#45;&gt;eth0 -->
<g id="edge27" class="edge"><title>eth0_192.168.0.0/16&#45;&gt;eth0</title>
<path fill="none" stroke="#fdae61" d="M519.665,-35.8455C486.771,-78.6972 401.15,-190.237 357.099,-247.624"/>
<polygon fill="#fdae61" stroke="#fdae61" points="358.576,-253.912 350.643,-247.822 351.861,-246.236 359.793,-252.325 358.576,-253.912"/>
<polyline fill="none" stroke="#fdae61" points="354,-251.66 357.045,-247.694 "/>
</g>
<!-- eth0_anywhere&#45;&gt;eth0 -->
<g id="edge77" class="edge"><title>eth0_anywhere&#45;&gt;eth0</title>
<path fill="none" stroke="#f46d43" d="M73.303,-432.16C126.95,-405.375 231.323,-346.954 289.117,-311.567"/>
<polygon fill="#f46d43" stroke="#f46d43" points="291.31,-314.327 297.978,-306.094 287.631,-308.371 291.31,-314.327"/>
<text text-anchor="middle" x="173.21" y="-353.663" font-family="Times Roman,serif" font-size="14.00" fill="#f46d43">TCP:10001:10010 New</text>
</g>
<!-- eth0_anywhere&#45;&gt;eth0 -->
<g id="edge87" class="edge"><title>eth0_anywhere&#45;&gt;eth0</title>
<path fill="none" stroke="#fee08b" d="M67.6541,-425.326C118.025,-393.577 223.851,-333.876 284.612,-302.699"/>
<polygon fill="#fee08b" stroke="#fee08b" points="286.271,-305.782 293.599,-298.131 283.099,-299.542 286.271,-305.782"/>
<text text-anchor="middle" x="168.133" y="-345.813" font-family="Times Roman,serif" font-size="14.00" fill="#fee08b">UDP:ntp</text>
</g>
<!-- eth1_anywhere -->
<g id="node21" class="node"><title>eth1_anywhere</title>
<ellipse fill="none" stroke="black" cx="754.4" cy="-119.619" rx="37.8097" ry="34"/>
<text text-anchor="middle" x="754.4" y="-115.419" font-family="Times Roman,serif" font-size="14.00">anywhere</text>
</g>
<!-- eth1_anywhere&#45;&gt;eth1 -->
<g id="edge92" class="edge"><title>eth1_anywhere&#45;&gt;eth1</title>
<path fill="none" stroke="#ffffbf" d="M718.161,-131.007C685.943,-154.483 643,-203.385 622.053,-239.953"/>
<polygon fill="#ffffbf" stroke="#ffffbf" points="618.864,-238.494 617.221,-248.961 625.032,-241.803 618.864,-238.494"/>
<text text-anchor="middle" x="684.107" y="-194.28" font-family="Times Roman,serif" font-size="14.00" fill="#ffffbf">UDP:bootps</text>
</g>
<!-- eth1_anywhere&#45;&gt;eth1 -->
<g id="edge97" class="edge"><title>eth1_anywhere&#45;&gt;eth1</title>
<path fill="none" stroke="#e6f598" d="M750.006,-153.765C732.404,-189.047 688.647,-240.689 654.409,-267.522"/>
<polygon fill="#e6f598" stroke="#e6f598" points="651.895,-265.028 645.931,-273.785 656.054,-270.658 651.895,-265.028"/>
<text text-anchor="middle" x="717.208" y="-218.443" font-family="Times Roman,serif" font-size="14.00" fill="#e6f598">UDP:domain</text>
</g>
<!-- eth1_anywhere&#45;&gt;eth1 -->
<g id="edge102" class="edge"><title>eth1_anywhere&#45;&gt;eth1</title>
<path fill="none" stroke="#abdda4" d="M740.22,-151.364C718.775,-182.583 678.81,-229.177 649.157,-257.874"/>
<polygon fill="#abdda4" stroke="#abdda4" points="646.727,-255.355 641.857,-264.764 651.532,-260.445 646.727,-255.355"/>
<text text-anchor="middle" x="679.688" y="-188.419" font-family="Times Roman,serif" font-size="14.00" fill="#abdda4">TCP:domain</text>
</g>
<!-- eth1_anywhere&#45;&gt;eth1 -->
<g id="edge107" class="edge"><title>eth1_anywhere&#45;&gt;eth1</title>
<path fill="none" stroke="#66c2a5" d="M731.042,-146.575C706.696,-174.673 668.489,-218.765 642.162,-249.148"/>
<polygon fill="#66c2a5" stroke="#66c2a5" points="639.311,-247.095 635.407,-256.944 644.601,-251.679 639.311,-247.095"/>
<text text-anchor="middle" x="672.602" y="-181.662" font-family="Times Roman,serif" font-size="14.00" fill="#66c2a5">UDP:ntp</text>
</g>
<!-- eth1_anywhere&#45;&gt;eth1 -->
<g id="edge142" class="edge"><title>eth1_anywhere&#45;&gt;eth1</title>
<path fill="none" stroke="#ffffbf" d="M723.233,-139.809C695.519,-165.716 656.366,-210.551 632.672,-243.27"/>
<polygon fill="#ffffbf" stroke="#ffffbf" points="629.61,-241.539 626.709,-251.729 635.331,-245.572 629.61,-241.539"/>
</g>
<!-- lo_anywhere&#45;&gt;lo -->
<g id="edge42" class="edge"><title>lo_anywhere&#45;&gt;lo</title>
<path fill="none" stroke="#e6f598" d="M843.504,-331.136C802.396,-341.271 741.325,-359.431 706.231,-372.128"/>
<polygon fill="#e6f598" stroke="#e6f598" points="704.781,-368.934 696.642,-375.716 707.234,-375.49 704.781,-368.934"/>
</g>
</g>
</svg>
